{
	"asset":{
		"generator":"Khronos glTF Blender I/O v4.0.44",
		"version":"2.0"
	},
	"scene":0,
	"scenes":[
		{
			"name":"Scene",
			"nodes":[
				0,
				1,
				2,
				3,
				4,
				5,
				6
			]
		}
	],
	"nodes":[
		{
			"mesh":0,
			"name":"Text.006",
			"rotation":[
				0.9307935237884521,
				-0.011921071447432041,
				0.3650510907173157,
				0.014804012142121792
			],
			"scale":[
				0.4758289158344269,
				0.4758288860321045,
				0.4758288860321045
			],
			"translation":[
				-0.4451255798339844,
				0.4051418900489807,
				-0.9095889329910278
			]
		},
		{
			"mesh":1,
			"name":"Text.007",
			"rotation":[
				0.5001686811447144,
				-0.49994608759880066,
				0.5008575916290283,
				0.4990259110927582
			],
			"scale":[
				0.5656601190567017,
				0.5656599998474121,
				0.5656599998474121
			],
			"translation":[
				-0.6772041320800781,
				1.5721240043640137,
				-0.026273416355252266
			]
		},
		{
			"mesh":2,
			"name":"Text.008",
			"rotation":[
				0.0005503898137249053,
				-0.7160246968269348,
				0.6980735659599304,
				0.0013206369476392865
			],
			"scale":[
				0.47121894359588623,
				0.47121885418891907,
				0.47121894359588623
			],
			"translation":[
				0.373565673828125,
				1.576841115951538,
				-1.0337598323822021
			]
		},
		{
			"mesh":3,
			"name":"Text.009",
			"rotation":[
				0.7078129649162292,
				0.005114930681884289,
				-0.005290352273732424,
				0.7063616514205933
			],
			"scale":[
				0.4712189733982086,
				0.47121885418891907,
				0.47121891379356384
			],
			"translation":[
				0.373565673828125,
				1.576841115951538,
				1.0256134271621704
			]
		},
		{
			"mesh":4,
			"name":"Text.010",
			"rotation":[
				0.4986666142940521,
				0.5012063980102539,
				-0.5023531317710876,
				0.49776017665863037
			],
			"scale":[
				0.5656600594520569,
				0.5656599998474121,
				0.5656599998474121
			],
			"translation":[
				1.3820610046386719,
				1.5721240043640137,
				-0.026273416355252266
			]
		},
		{
			"mesh":5,
			"name":"Text.011",
			"rotation":[
				0,
				-0.3907310962677002,
				0,
				0.9205048680305481
			],
			"scale":[
				0.4758288860321045,
				0.4758288860321045,
				0.4758288860321045
			],
			"translation":[
				-0.5616874694824219,
				2.4612109661102295,
				-0.7805091142654419
			]
		},
		{
			"mesh":6,
			"name":"Cube.001",
			"translation":[
				0.35715484619140625,
				1.4306119680404663,
				0
			]
		}
	],
	"materials":[
		{
			"doubleSided":true,
			"name":"Material.002",
			"pbrMetallicRoughness":{
				"baseColorFactor":[
					0.0056063346564769745,
					0.005605147685855627,
					0.0056049879640340805,
					1
				],
				"metallicFactor":0.6010928750038147,
				"roughnessFactor":0.5
			}
		},
		{
			"doubleSided":true,
			"name":"Material.003",
			"pbrMetallicRoughness":{
				"baseColorTexture":{
					"index":0
				},
				"metallicFactor":0.4754098653793335,
				"roughnessFactor":0.40163934230804443
			}
		}
	],
	"meshes":[
		{
			"name":"Text.006",
			"primitives":[
				{
					"attributes":{
						"POSITION":0,
						"NORMAL":1,
						"TEXCOORD_0":2
					},
					"indices":3,
					"material":0
				}
			]
		},
		{
			"name":"Text.007",
			"primitives":[
				{
					"attributes":{
						"POSITION":4,
						"NORMAL":5,
						"TEXCOORD_0":6
					},
					"indices":7,
					"material":0
				}
			]
		},
		{
			"name":"Text.008",
			"primitives":[
				{
					"attributes":{
						"POSITION":8,
						"NORMAL":9,
						"TEXCOORD_0":10
					},
					"indices":11,
					"material":0
				}
			]
		},
		{
			"name":"Text.009",
			"primitives":[
				{
					"attributes":{
						"POSITION":12,
						"NORMAL":13,
						"TEXCOORD_0":14
					},
					"indices":15,
					"material":0
				}
			]
		},
		{
			"name":"Text.010",
			"primitives":[
				{
					"attributes":{
						"POSITION":16,
						"NORMAL":17,
						"TEXCOORD_0":18
					},
					"indices":19,
					"material":0
				}
			]
		},
		{
			"name":"Text.011",
			"primitives":[
				{
					"attributes":{
						"POSITION":20,
						"NORMAL":21,
						"TEXCOORD_0":22
					},
					"indices":3,
					"material":0
				}
			]
		},
		{
			"name":"Cube.001",
			"primitives":[
				{
					"attributes":{
						"POSITION":23,
						"NORMAL":24,
						"TEXCOORD_0":25
					},
					"indices":26,
					"material":1
				}
			]
		}
	],
	"textures":[
		{
			"sampler":0,
			"source":0
		}
	],
	"images":[
		{
			"mimeType":"image/png",
			"name":"Baked",
			"uri":"textures/Baked.png"
		}
	],
	"accessors":[
		{
			"bufferView":0,
			"componentType":5126,
			"count":1038,
			"max":[
				4.877000331878662,
				0.09999999403953552,
				0.009000000543892384
			],
			"min":[
				0,
				-0.09999999403953552,
				-0.6910000443458557
			],
			"type":"VEC3"
		},
		{
			"bufferView":1,
			"componentType":5126,
			"count":1038,
			"type":"VEC3"
		},
		{
			"bufferView":2,
			"componentType":5126,
			"count":1038,
			"type":"VEC2"
		},
		{
			"bufferView":3,
			"componentType":5123,
			"count":2988,
			"type":"SCALAR"
		},
		{
			"bufferView":4,
			"componentType":5126,
			"count":3176,
			"max":[
				1.3970000743865967,
				0.09999999403953552,
				1.0089999437332153
			],
			"min":[
				-1.3890000581741333,
				-0.09999999403953552,
				-0.6820000410079956
			],
			"type":"VEC3"
		},
		{
			"bufferView":5,
			"componentType":5126,
			"count":3176,
			"type":"VEC3"
		},
		{
			"bufferView":6,
			"componentType":5126,
			"count":3176,
			"type":"VEC2"
		},
		{
			"bufferView":7,
			"componentType":5123,
			"count":9324,
			"type":"SCALAR"
		},
		{
			"bufferView":8,
			"componentType":5126,
			"count":2010,
			"max":[
				1.4230002164840698,
				0.09999999403953552,
				1.0089999437332153
			],
			"min":[
				-1.3900002241134644,
				-0.09999999403953552,
				-0.6910000443458557
			],
			"type":"VEC3"
		},
		{
			"bufferView":9,
			"componentType":5126,
			"count":2010,
			"type":"VEC3"
		},
		{
			"bufferView":10,
			"componentType":5126,
			"count":2010,
			"type":"VEC2"
		},
		{
			"bufferView":11,
			"componentType":5123,
			"count":5904,
			"type":"SCALAR"
		},
		{
			"bufferView":12,
			"componentType":5126,
			"count":3766,
			"max":[
				1.7000000476837158,
				0.09999999403953552,
				1.0089999437332153
			],
			"min":[
				-1.6530001163482666,
				-0.09999999403953552,
				-0.6910000443458557
			],
			"type":"VEC3"
		},
		{
			"bufferView":13,
			"componentType":5126,
			"count":3766,
			"type":"VEC3"
		},
		{
			"bufferView":14,
			"componentType":5126,
			"count":3766,
			"type":"VEC2"
		},
		{
			"bufferView":15,
			"componentType":5123,
			"count":11076,
			"type":"SCALAR"
		},
		{
			"bufferView":16,
			"componentType":5126,
			"count":3701,
			"max":[
				1.2320001125335693,
				0.09999999403953552,
				1.0089999437332153
			],
			"min":[
				-1.2210001945495605,
				-0.09999999403953552,
				-0.6820000410079956
			],
			"type":"VEC3"
		},
		{
			"bufferView":17,
			"componentType":5126,
			"count":3701,
			"type":"VEC3"
		},
		{
			"bufferView":18,
			"componentType":5126,
			"count":3701,
			"type":"VEC2"
		},
		{
			"bufferView":19,
			"componentType":5123,
			"count":10836,
			"type":"SCALAR"
		},
		{
			"bufferView":20,
			"componentType":5126,
			"count":1038,
			"max":[
				4.877000331878662,
				0.09999999403953552,
				0.009000000543892384
			],
			"min":[
				0,
				-0.09999999403953552,
				-0.6910000443458557
			],
			"type":"VEC3"
		},
		{
			"bufferView":21,
			"componentType":5126,
			"count":1038,
			"type":"VEC3"
		},
		{
			"bufferView":22,
			"componentType":5126,
			"count":1038,
			"type":"VEC2"
		},
		{
			"bufferView":23,
			"componentType":5126,
			"count":24,
			"max":[
				1,
				1,
				1
			],
			"min":[
				-1,
				-1,
				-1
			],
			"type":"VEC3"
		},
		{
			"bufferView":24,
			"componentType":5126,
			"count":24,
			"type":"VEC3"
		},
		{
			"bufferView":25,
			"componentType":5126,
			"count":24,
			"type":"VEC2"
		},
		{
			"bufferView":26,
			"componentType":5123,
			"count":36,
			"type":"SCALAR"
		}
	],
	"bufferViews":[
		{
			"buffer":0,
			"byteLength":12456,
			"byteOffset":0,
			"target":34962
		},
		{
			"buffer":0,
			"byteLength":12456,
			"byteOffset":12456,
			"target":34962
		},
		{
			"buffer":0,
			"byteLength":8304,
			"byteOffset":24912,
			"target":34962
		},
		{
			"buffer":0,
			"byteLength":5976,
			"byteOffset":33216,
			"target":34963
		},
		{
			"buffer":0,
			"byteLength":38112,
			"byteOffset":39192,
			"target":34962
		},
		{
			"buffer":0,
			"byteLength":38112,
			"byteOffset":77304,
			"target":34962
		},
		{
			"buffer":0,
			"byteLength":25408,
			"byteOffset":115416,
			"target":34962
		},
		{
			"buffer":0,
			"byteLength":18648,
			"byteOffset":140824,
			"target":34963
		},
		{
			"buffer":0,
			"byteLength":24120,
			"byteOffset":159472,
			"target":34962
		},
		{
			"buffer":0,
			"byteLength":24120,
			"byteOffset":183592,
			"target":34962
		},
		{
			"buffer":0,
			"byteLength":16080,
			"byteOffset":207712,
			"target":34962
		},
		{
			"buffer":0,
			"byteLength":11808,
			"byteOffset":223792,
			"target":34963
		},
		{
			"buffer":0,
			"byteLength":45192,
			"byteOffset":235600,
			"target":34962
		},
		{
			"buffer":0,
			"byteLength":45192,
			"byteOffset":280792,
			"target":34962
		},
		{
			"buffer":0,
			"byteLength":30128,
			"byteOffset":325984,
			"target":34962
		},
		{
			"buffer":0,
			"byteLength":22152,
			"byteOffset":356112,
			"target":34963
		},
		{
			"buffer":0,
			"byteLength":44412,
			"byteOffset":378264,
			"target":34962
		},
		{
			"buffer":0,
			"byteLength":44412,
			"byteOffset":422676,
			"target":34962
		},
		{
			"buffer":0,
			"byteLength":29608,
			"byteOffset":467088,
			"target":34962
		},
		{
			"buffer":0,
			"byteLength":21672,
			"byteOffset":496696,
			"target":34963
		},
		{
			"buffer":0,
			"byteLength":12456,
			"byteOffset":518368,
			"target":34962
		},
		{
			"buffer":0,
			"byteLength":12456,
			"byteOffset":530824,
			"target":34962
		},
		{
			"buffer":0,
			"byteLength":8304,
			"byteOffset":543280,
			"target":34962
		},
		{
			"buffer":0,
			"byteLength":288,
			"byteOffset":551584,
			"target":34962
		},
		{
			"buffer":0,
			"byteLength":288,
			"byteOffset":551872,
			"target":34962
		},
		{
			"buffer":0,
			"byteLength":192,
			"byteOffset":552160,
			"target":34962
		},
		{
			"buffer":0,
			"byteLength":72,
			"byteOffset":552352,
			"target":34963
		}
	],
	"samplers":[
		{
			"magFilter":9729,
			"minFilter":9987
		}
	],
	"buffers":[
		{
			"byteLength":552424,
			"uri":"Cube-Services1.bin"
		}
	]
}
